<?xml version="1.0" encoding="UTF-8" standalone="no"?>
<!DOCTYPE svg PUBLIC "-//W3C//DTD SVG 1.1//EN" "http://www.w3.org/Graphics/SVG/1.1/DTD/svg11.dtd">
<svg width="100%" height="100%" viewBox="0 0 2521 2911" version="1.1" xmlns="http://www.w3.org/2000/svg" xmlns:xlink="http://www.w3.org/1999/xlink" xml:space="preserve" xmlns:serif="http://www.serif.com/" style="fill-rule:evenodd;clip-rule:evenodd;stroke-linejoin:round;stroke-miterlimit:2;">
    <g transform="matrix(0.987308,0,0,0.987342,656.605,121.272)">
        <path d="M611.658,-122.827L1888.36,614.279L1888.36,2088.49L611.658,2825.59L-665.045,2088.49L-665.045,614.279L611.658,-122.827Z" style="fill:none;"/>
        <clipPath id="_clip1">
            <path d="M611.658,-122.827L1888.36,614.279L1888.36,2088.49L611.658,2825.59L-665.045,2088.49L-665.045,614.279L611.658,-122.827Z"/>
        </clipPath>
        <g clip-path="url(#_clip1)">
            <g id="Layer_2" transform="matrix(1.01285,0,0,1.01282,-665.045,-122.827)">
                <g>
                    <g>
                        <path d="M1368.7,825.8C1363.8,856.9 1355.1,887.2 1342.7,916.6C1323,962.9 1294.7,1004.8 1258.6,1041.1C1220.4,1079.4 1175.5,1109.6 1125.1,1130.6C1073.2,1152.3 1018,1163.3 961.1,1163.3C906.1,1163.3 852.7,1153 802.3,1132.8C753.3,1113.1 709.3,1084.9 671.4,1048.9C633.1,1012.5 603,970 581.9,922.6C568.1,891.5 558.5,859.1 553.3,825.9L421.7,825.9L421.7,1825.6L1682.1,1825.6L1682.1,825.8L1368.7,825.8Z" style="fill:rgb(33,33,33);fill-rule:nonzero;"/>
                        <path d="M1682.1,650.1L1372.9,650.1L1373.3,740.7L1682.1,740.7L1682.1,650.1Z" style="fill:rgb(33,33,33);fill-rule:nonzero;"/>
                        <rect x="421.7" y="650.1" width="127" height="90.7" style="fill:rgb(33,33,33);"/>
                        <path d="M1800,1825.5L1901,1825.5C1949.4,1825.5 1996.2,1836.8 2040,1859C2080.8,1879.7 2117,1908.9 2147.8,1945.8C2205.5,2015.1 2238.3,2105.2 2240.7,2200.8L2318,2200.8L2318,1252.1L2129.3,1252.1C2089.7,1252.1 2051.4,1243 2015.4,1225C1981.3,1207.9 1950.8,1183.7 1924.8,1152.9C1899.3,1122.7 1879.3,1087.7 1865.4,1048.9C1851.2,1009.1 1844,966.9 1844,923.5L1844,825.7L1800,825.7L1800,1825.5Z" style="fill:rgb(33,33,33);fill-rule:nonzero;"/>
                        <path d="M1800,2285.9L1800,2513.2L1870.6,2513.2L2028.4,2422.1L2028.4,2285.9L1800,2285.9Z" style="fill:rgb(33,33,33);fill-rule:nonzero;"/>
                        <path d="M1941,740.7L2318,740.7L2318,656.1L2307.5,650.1L1941,650.1L1941,740.7Z" style="fill:rgb(33,33,33);fill-rule:nonzero;"/>
                        <path d="M979.4,2171C1024.2,2171 1067.5,2181 1108.3,2200.8L1682.1,2200.8L1682.1,2038L421.7,2038L421.7,2171L979.4,2171Z" style="fill:rgb(33,33,33);fill-rule:nonzero;"/>
                        <rect x="1800" y="650.1" width="43.9" height="90.7" style="fill:rgb(33,33,33);"/>
                        <rect x="39.5" y="825.8" width="264.3" height="999.7" style="fill:rgb(33,33,33);"/>
                        <path d="M1306.2,2513.2L1682.1,2513.2L1682.1,2285.9L1216.3,2285.9C1216.4,2286 1216.5,2286.2 1216.6,2286.3C1268.8,2348.5 1300,2428.1 1306.2,2513.2Z" style="fill:rgb(33,33,33);fill-rule:nonzero;"/>
                        <path d="M303.8,2038L39.5,2038L39.5,2160.5L57.7,2171L303.8,2171L303.8,2038Z" style="fill:rgb(33,33,33);fill-rule:nonzero;"/>
                        <path d="M2028.1,2200.8C2027.1,2179 2023,2158.1 2016.1,2138.3C2008.5,2116.9 1997.9,2097.9 1984.6,2081.9C1970.9,2065.5 1941.9,2038 1901,2038L1800,2038L1800,2200.9L2028.1,2200.9L2028.1,2200.8Z" style="fill:rgb(33,33,33);fill-rule:nonzero;"/>
                        <path d="M303.8,650.1L213.5,650.1L56.4,740.7L303.8,740.7L303.8,650.1Z" style="fill:rgb(33,33,33);fill-rule:nonzero;"/>
                        <path d="M1941,825.8L1941,923.6C1941,955.8 1946.3,987 1956.8,1016.3C1966.8,1044.2 1980.9,1069.1 1998.9,1090.3C2034.3,1132.1 2080.6,1155.1 2129.3,1155.1L2318,1155.1L2318,825.8L1941,825.8Z" style="fill:rgb(33,33,33);fill-rule:nonzero;"/>
                        <path d="M1307.3,2838.4L1437,2763.5L1307.3,2763.5L1307.3,2838.4Z" style="fill:rgb(33,33,33);fill-rule:nonzero;"/>
                        <path d="M1307.3,2686.6L1570.2,2686.6L1666.8,2630.9L1307.3,2630.9L1307.3,2686.6Z" style="fill:rgb(33,33,33);fill-rule:nonzero;"/>
                        <path d="M1125.2,2630.9L854.2,2630.9L950.8,2686.6L1125.2,2686.6L1125.2,2630.9Z" style="fill:rgb(33,33,33);fill-rule:nonzero;"/>
                        <path d="M2240.8,2299.5L2264.3,2285.9L2240.8,2285.9L2240.8,2299.5Z" style="fill:rgb(33,33,33);fill-rule:nonzero;"/>
                        <path d="M1111.8,2465C1103.5,2441.6 1091.8,2420.9 1077.1,2403.3C1050,2370.9 1015.3,2353.1 979.4,2353.1L421.7,2353.1L421.7,2381.2L650.4,2513.2L1123.2,2513.2C1121.1,2496.6 1117.3,2480.5 1111.8,2465Z" style="fill:rgb(33,33,33);fill-rule:nonzero;"/>
                        <path d="M1682.1,519.3L1682.1,289L1370.6,109.1L1372.3,519.3L1682.1,519.3Z" style="fill:rgb(33,33,33);fill-rule:nonzero;"/>
                        <path d="M761.2,740.7L1160.8,740.7L1160.4,650.1L761.2,650.1L761.2,740.7Z" style="fill:rgb(33,33,33);fill-rule:nonzero;"/>
                        <path d="M1159.9,519.3L1158.1,104.7L761.2,333.8L761.2,519.3L1159.9,519.3Z" style="fill:rgb(33,33,33);fill-rule:nonzero;"/>
                        <path d="M2081.1,519.3L1941,438.5L1941,519.3L2081.1,519.3Z" style="fill:rgb(33,33,33);fill-rule:nonzero;"/>
                        <path d="M1800,519.3L1843.9,519.3L1843.9,382.4L1800,357.1L1800,519.3Z" style="fill:rgb(33,33,33);fill-rule:nonzero;"/>
                        <path d="M1084,2763.5L1125.2,2787.3L1125.2,2763.5L1084,2763.5Z" style="fill:rgb(33,33,33);fill-rule:nonzero;"/>
                        <path d="M961.1,950.8C989.8,950.8 1017.4,945.3 1043.2,934.5C1067.8,924.2 1089.7,909.6 1108.1,891.1C1127.1,872 1141.3,849.8 1150.2,825.8L771.9,825.8C798.9,898.4 873.5,950.8 961.1,950.8Z" style="fill:rgb(33,33,33);fill-rule:nonzero;"/>
                        <path d="M548.8,456.5L439.9,519.3L548.8,519.3L548.8,456.5Z" style="fill:rgb(33,33,33);fill-rule:nonzero;"/>
                        <path d="M1372.3,519.3L1372.9,650L1682.1,650L1682.1,740.7L1373.3,740.7L1373.4,764.3C1373.5,785 1371.9,805.5 1368.8,825.7L1682.2,825.7L1682.2,1825.4L1800,1825.4L1800,825.8L1843.9,825.8L1843.9,740.7L1800,740.7L1800,650L1843.9,650L1843.9,519.3L1800,519.3L1800,357.1L1682.1,289L1682.1,519.4L1372.3,519.4L1372.3,519.3Z" style="fill:rgb(53,53,53);fill-rule:nonzero;"/>
                        <path d="M1941,650.1L2307.5,650.1L2081.1,519.3L1941,519.3L1941,650.1Z" style="fill:rgb(53,53,53);fill-rule:nonzero;"/>
                        <path d="M761.2,650.1L1160.4,650.1L1159.9,519.3L761.2,519.3L761.2,650.1Z" style="fill:rgb(53,53,53);fill-rule:nonzero;"/>
                        <path d="M1800,2285.9L2028.4,2285.9L2028.4,2212.2C2028.4,2208.4 2028.3,2204.6 2028.1,2200.9L1800,2200.9L1800,2038L1682.1,2038L1682.1,2200.9L1108.3,2200.9C1109.7,2201.6 1111.2,2202.3 1112.6,2203C1151.7,2222.8 1186.6,2250.7 1216.3,2285.9L1682.1,2285.9L1682.1,2513.2L1306.2,2513.2C1307,2523.6 1307.3,2534.1 1307.3,2544.6L1307.3,2630.9L1666.8,2630.9L1870.6,2513.2L1800,2513.2L1800,2285.9Z" style="fill:rgb(53,53,53);fill-rule:nonzero;"/>
                        <path d="M2318,2200.8L2240.7,2200.8C2240.8,2204.6 2240.8,2208.3 2240.8,2212.1L2240.8,2285.8L2264.3,2285.8L2481.5,2160.4L2481.5,1252.1L2318,1252.1L2318,2200.8Z" style="fill:rgb(53,53,53);fill-rule:nonzero;"/>
                        <path d="M1941,740.7L1941,825.8L2318,825.8L2318,1155.1L2481.5,1155.1L2481.5,750.5L2318,656.1L2318,740.7L1941,740.7Z" style="fill:rgb(53,53,53);fill-rule:nonzero;"/>
                        <path d="M761.2,766C761.2,786.9 765,807 771.9,825.8L1150.1,825.8C1157.2,806.5 1160.9,786.1 1160.8,765.3L1160.7,740.8L761.2,740.8L761.2,766Z" style="fill:rgb(53,53,53);fill-rule:nonzero;"/>
                        <path d="M373.1,2353.1L421.7,2381.2L421.7,2353.1L373.1,2353.1Z" style="fill:rgb(53,53,53);fill-rule:nonzero;"/>
                        <rect x="303.8" y="2038" width="117.9" height="133" style="fill:rgb(53,53,53);"/>
                        <path d="M303.7,1825.5L421.7,1825.5L421.7,825.8L553.4,825.8C550.3,806.1 548.8,786.2 548.8,766L548.8,740.8L421.8,740.8L421.8,650.1L548.8,650.1L548.8,519.3L439.9,519.3L213.5,650.1L303.8,650.1L303.8,740.8L56.4,740.8L39.4,750.6L39.4,825.9L303.7,825.9L303.7,1825.5Z" style="fill:rgb(53,53,53);fill-rule:nonzero;"/>
                        <path d="M1125.2,2686.6L950.8,2686.6L1084,2763.5L1125.2,2763.5L1125.2,2686.6Z" style="fill:rgb(53,53,53);fill-rule:nonzero;"/>
                        <path d="M1307.3,2763.5L1437,2763.5L1570.2,2686.6L1307.3,2686.6L1307.3,2763.5Z" style="fill:rgb(53,53,53);fill-rule:nonzero;"/>
                        <path d="M1125.2,2544.6C1125.2,2534 1124.5,2523.5 1123.2,2513.2L650.4,2513.2L854.2,2630.9L1125.2,2630.9L1125.2,2544.6Z" style="fill:rgb(53,53,53);fill-rule:nonzero;"/>
                        <path d="M2240.8,2212.2C2240.8,2208.4 2240.7,2204.6 2240.7,2200.9C2238.3,2105.4 2205.5,2015.2 2147.8,1945.9C2117,1909 2080.8,1879.8 2040,1859.1C1996.2,1836.8 1949.4,1825.6 1901,1825.6L39.5,1825.6L39.5,2038L1901,2038C1941.9,2038 1970.9,2065.5 1984.6,2081.9C1997.9,2097.9 2008.5,2116.9 2016.1,2138.3C2023.1,2158.1 2027.1,2179.1 2028.1,2200.8C2028.3,2204.6 2028.4,2208.3 2028.4,2212.1L2028.4,2422L2240.8,2299.3L2240.8,2212.2Z" style="fill:rgb(73,73,73);fill-rule:nonzero;"/>
                        <path d="M1307.3,2838.5L1307.3,2544.5C1307.3,2534 1306.9,2523.5 1306.2,2513.1C1300,2428 1268.8,2348.4 1216.7,2286.2C1216.6,2286.1 1216.5,2285.9 1216.4,2285.8C1186.7,2250.5 1151.9,2222.6 1112.7,2202.9C1111.3,2202.2 1109.8,2201.5 1108.4,2200.8C1067.6,2181 1024.3,2171 979.5,2171L57.7,2171L373.1,2353.1L979.4,2353.1C1015.3,2353.1 1050,2370.9 1077.1,2403.3C1091.9,2420.9 1103.5,2441.7 1111.8,2465C1117.3,2480.5 1121.1,2496.6 1123.2,2513.2C1124.5,2523.5 1125.2,2534 1125.2,2544.6L1125.2,2787.4L1260.5,2865.5L1307.3,2838.5Z" style="fill:rgb(73,73,73);fill-rule:nonzero;"/>
                        <path d="M548.8,650.1L548.8,766C548.8,786.2 550.3,806.1 553.4,825.8C558.6,859 568.2,891.3 582,922.5C603.1,969.9 633.2,1012.4 671.5,1048.8C709.4,1084.8 753.4,1113.1 802.4,1132.7C852.8,1153 906.2,1163.2 961.2,1163.2C1018.1,1163.2 1073.3,1152.2 1125.2,1130.5C1175.6,1109.4 1220.6,1079.3 1258.7,1041C1294.8,1004.8 1323.1,962.9 1342.8,916.5C1355.3,887.2 1364,856.8 1368.8,825.7C1372,805.5 1373.5,785 1373.4,764.3L1373.3,740.7L1372.9,650L1372.3,519.3L1370.6,109.1L1260.5,45.5L1158.1,104.6L1159.9,519.3L1160.5,650L1160.9,740.7L1161,765.2C1161.1,786 1157.4,806.4 1150.3,825.7C1141.4,849.7 1127.2,871.9 1108.2,891C1089.8,909.5 1067.9,924.1 1043.3,934.4C1017.5,945.2 989.9,950.7 961.2,950.7C873.6,950.7 799,898.3 772.1,825.7C765.1,806.9 761.4,786.8 761.4,765.9L761.4,333.8L639.1,404.4L549,456.4L549,650.1L548.8,650.1Z" style="fill:rgb(73,73,73);fill-rule:nonzero;"/>
                        <path d="M1843.9,382.3L1843.9,923.7C1843.9,967.1 1851.1,1009.3 1865.3,1049.1C1879.2,1087.9 1899.2,1122.9 1924.7,1153.1C1950.7,1183.9 1981.2,1208.1 2015.3,1225.2C2051.3,1243.2 2089.6,1252.3 2129.2,1252.3L2481.5,1252.3L2481.5,1155.2L2129.3,1155.2C2080.6,1155.2 2034.3,1132.2 1998.9,1090.4C1980.9,1069.1 1966.8,1044.2 1956.8,1016.4C1946.3,987.1 1941,956 1941,923.7L1941,438.4L1843.9,382.3Z" style="fill:rgb(73,73,73);fill-rule:nonzero;"/>
                    </g>
                    <g transform="matrix(1.10709,0,0,1.10709,-242.171,-76.5665)">
                        <g transform="matrix(0.573832,-0.573832,0.573832,0.573832,-266.275,1308.58)">
                            <path d="M1487.82,634.757L1487.82,511.532C1853.75,511.532 2150.85,808.627 2150.85,1174.57C2150.85,1540.5 1853.75,1837.6 1487.82,1837.6L360.118,1837.6L360.118,1714.37L1487.82,1714.37C1785.74,1714.37 2027.62,1472.49 2027.62,1174.57C2027.62,876.637 1785.74,634.757 1487.82,634.757Z" style="fill:rgb(212,107,175);"/>
                        </g>
                        <g transform="matrix(0.573832,-0.573832,0.573832,0.573832,-266.275,1308.58)">
                            <rect x="-925.944" y="1714.37" width="1286.06" height="123.225" style="fill:rgb(143,43,108);"/>
                        </g>
                        <g transform="matrix(0.954647,-0.954647,0.954647,0.954647,-531.105,1542.18)">
                            <rect x="153.327" y="323.837" width="1002.04" height="74.07" style="fill:rgb(143,43,108);"/>
                        </g>
                        <g transform="matrix(1.09072,0,0,0.811521,169.443,557.658)">
                            <rect x="1562.26" y="1864.89" width="847.842" height="123.225" style="fill:rgb(143,43,108);"/>
                        </g>
                        <g transform="matrix(1.44936,0,0,0.811521,-390.848,557.658)">
                            <rect x="901.925" y="1864.89" width="660.332" height="123.225" style="fill:rgb(212,107,175);"/>
                        </g>
                        <g transform="matrix(1.24775,0,0,0.811521,-209.006,557.658)">
                            <rect x="52.945" y="1864.89" width="848.979" height="123.225" style="fill:rgb(143,43,108);"/>
                        </g>
                        <g transform="matrix(1.14567,2.62915e-16,-2.62915e-16,1.14567,1629.18,1856.78)">
                            <rect x="180.468" y="162.053" width="65.464" height="137.239" style="fill:rgb(212,107,175);"/>
                        </g>
                        <g transform="matrix(1.14567,2.62915e-16,-2.62915e-16,1.14567,672.113,1856.78)">
                            <rect x="180.468" y="162.053" width="65.464" height="137.239" style="fill:rgb(212,107,175);"/>
                        </g>
                        <g transform="matrix(0.810109,-0.810109,0.810109,0.810109,556.784,769.564)">
                            <rect x="180.468" y="162.053" width="65.464" height="137.239" style="fill:rgb(212,107,175);"/>
                        </g>
                    </g>
                    <g>
                        <path d="M797.2,1687.2L774.2,1687.2C729.1,1687.2 686.6,1669.7 654.5,1637.9C622.5,1606.1 604.6,1563.7 604.3,1518.6C603.5,1408.9 603.3,1303.3 603.3,1200.6L548.7,1200.6C548.6,1303.4 548.9,1409.1 549.7,1519C549.9,1549.1 556,1578.4 567.8,1605.9C579.2,1632.5 595.4,1656.3 616,1676.7C636.6,1697.1 660.5,1713.2 687.2,1724.4C714.8,1736 744,1741.9 774.2,1741.9L797.2,1741.9L797.2,1687.2Z" style="fill:rgb(0,255,163);fill-rule:nonzero;"/>
                    </g>
                    <g>
                        <path d="M2248.9,1316.4C2216.5,1316.6 2186.1,1329.5 2163.2,1352.5C2140.4,1375.5 2127.8,1406 2127.8,1438.4L2127.8,1643.7L2182.4,1643.7L2182.4,1438.4C2182.4,1420.5 2189.4,1403.6 2202,1390.9C2214.6,1378.2 2231.4,1371.1 2249.3,1371C2286.7,1370.7 2323.8,1370.4 2360.6,1370.2L2360.6,1315.6C2323.7,1315.8 2286.4,1316.1 2248.9,1316.4Z" style="fill:rgb(62,255,163);fill-rule:nonzero;"/>
                    </g>
                    <g>
                        <path d="M184.8,1744.5L184.8,1461C184.8,1440 188.6,1420.2 196.3,1401.6C204,1383 214.5,1367 227.8,1353.4C241.3,1339.7 257.4,1328.8 275,1321.3C293.2,1313.4 312.6,1309.5 333.2,1309.5C353.8,1309.5 373.1,1313.4 391.1,1321.3C426.9,1336.8 455.3,1365.7 470.2,1401.9C477.9,1420.3 481.7,1440 481.7,1461C481.7,1482 478,1501.7 470.5,1520.1C463.3,1538 452.7,1554.4 439.3,1568.3C425.8,1582.1 409.8,1593.1 392,1600.7C373.8,1608.6 354.2,1612.5 333.2,1612.5C307.4,1612.5 283.3,1606.4 261.1,1594.3L261.1,1539.8C280.9,1554.3 304.3,1561.6 331.4,1561.6C345.9,1561.6 359.2,1559.1 371.1,1554C383,1549 393.1,1542 401.4,1533.1C409.7,1524.2 416,1513.6 420.5,1501.3C424.9,1489 427.2,1475.5 427.2,1461C427.2,1446.5 425,1433 420.5,1420.7C416,1408.4 409.8,1397.8 401.7,1388.9C393.5,1379.9 383.5,1372.8 372.3,1368C360.8,1363 347.8,1360.4 333.2,1360.4C319.1,1360.4 306.2,1362.8 294.7,1367.7C283.4,1372.4 273.3,1379.4 265,1388.3C256.7,1397.2 250.4,1407.8 245.9,1420.1C241.5,1432.4 239.2,1446 239.2,1461L239.2,1744.5L184.8,1744.5Z" style="fill:rgb(0,255,163);fill-rule:nonzero;"/>
                    </g>
                    <g>
                        <path d="M927.4,1606.4L822.6,1606.4C777.8,1606.4 745.7,1599.7 726.3,1586.4C708.9,1574.7 697.9,1560.7 693.3,1544.3C688.7,1527.9 686.3,1506.4 686.3,1479.8L686.3,1315.6L739.6,1315.6L739.6,1479.2C739.6,1486.5 739.8,1492.6 740.2,1497.7C740.6,1502.7 742,1509.2 744.4,1517.1C746.8,1525 750.3,1531.4 754.7,1536.5C759.2,1541.5 765.6,1546 774.1,1549.9C782.6,1553.7 792.9,1555.7 805,1555.7L874.1,1555.7L874.1,1315.8L927.4,1315.8L927.4,1606.4Z" style="fill:rgb(0,255,163);fill-rule:nonzero;"/>
                    </g>
                    <g>
                        <path d="M1006.2,1315.7L1273.3,1315.7C1302,1315.7 1324.8,1321.2 1341.8,1332.1C1359.2,1343 1370.6,1357.1 1376,1374.5C1381.5,1391.9 1384.2,1412.7 1384.2,1436.9L1384.2,1606.5L1330.9,1606.5L1330.9,1436.9C1330.9,1405.4 1321.4,1384.6 1302.4,1374.5C1292.7,1369.2 1273.1,1366.6 1243.6,1366.6L1218.8,1366.6L1218.8,1606.5L1165.5,1606.5L1165.5,1366.6L1059.5,1366.6L1059.5,1606.5L1006.2,1606.5L1006.2,1315.7Z" style="fill:rgb(0,255,163);fill-rule:nonzero;"/>
                    </g>
                    <g>
                        <path d="M1456.8,1182.4L1511.3,1182.4L1511.3,1461C1511.3,1492.9 1519.5,1517.6 1535.8,1535.2C1552.1,1552.8 1574.7,1561.5 1603.3,1561.5C1633.2,1561.5 1656.6,1552.9 1673.6,1535.8C1690.6,1518.6 1699,1493.7 1699,1461C1699,1429.9 1689.8,1405.4 1671.4,1387.4C1653,1369.4 1628.9,1360.4 1599,1360.4C1573.6,1360.4 1551.5,1367.7 1533,1382.2L1533,1327.7C1555.2,1315.6 1579.2,1309.5 1605.1,1309.5C1647.9,1309.5 1683.3,1323.3 1711.4,1351C1739.5,1378.7 1753.5,1415.3 1753.5,1460.9C1753.5,1509 1738.9,1546.2 1709.6,1572.7C1680.3,1599.2 1643.5,1612.4 1599.1,1612.4C1556.7,1612.4 1522.4,1598.7 1496.1,1571.2C1469.9,1543.7 1456.7,1507 1456.7,1460.9L1456.8,1182.4Z" style="fill:rgb(0,255,163);fill-rule:nonzero;"/>
                    </g>
                    <g>
                        <path d="M1959.6,1309.6C2028.3,1312.4 2062.6,1340.9 2062.6,1395C2062.6,1462.4 2018.4,1496.2 1929.9,1496.2L1905.1,1496.2L1905.1,1449.6L1934.2,1449.6C1961.3,1449.6 1980,1445.5 1990.5,1437.2C2001,1428.9 2006.3,1415.1 2006.3,1395.7C2006.3,1383.2 2001.6,1373.8 1992.3,1367.5C1983,1361.2 1971.1,1358.1 1956.6,1358.1C1927.9,1358.1 1905.4,1368.2 1889.1,1388.4C1872.7,1408.6 1864.6,1432.8 1864.6,1461.1C1864.6,1491 1873.4,1515.2 1890.9,1533.8C1908.5,1552.4 1931.4,1561.7 1959.7,1561.7C1985.1,1561.7 2005.9,1555.4 2022.1,1542.9L2058.4,1578.6C2030.5,1601.2 1997.6,1612.5 1959.7,1612.5C1913.7,1612.5 1876.9,1599 1849.5,1571.9C1822,1544.8 1808.3,1509.9 1808.3,1467.1C1808.3,1419.5 1821.8,1380.9 1848.9,1351.4C1876,1321.9 1912.8,1308 1959.6,1309.6Z" style="fill:rgb(0,255,163);fill-rule:nonzero;"/>
                    </g>
                    <g>
                        <path d="M2190,1748.7L2190,2283.2L2442.1,2137.7L2442.1,1748.7L2190,1748.7Z" style="fill:none;fill-rule:nonzero;"/>
                        <path d="M848.8,1748.7L848.8,1774.1C848.8,1775.1 848,1775.9 847,1775.9L796,1775.9C795,1775.9 794.2,1775.1 794.2,1774.1L794.2,1651.7C794.2,1650.7 795,1649.9 796,1649.9L847,1649.9C848,1649.9 848.8,1650.7 848.8,1651.7L848.8,1679.3L2093.4,1679.3C2093.3,1679.1 2093.3,1678.9 2093.3,1678.7L2093.3,1618C2093.3,1617 2094.1,1616.2 2095.1,1616.2L2217.5,1616.2C2218.5,1616.2 2219.3,1617 2219.3,1618L2219.3,1678.7C2219.3,1678.9 2219.3,1679.1 2219.2,1679.3L2442.1,1679.3L2442.1,1376.6L2402.1,1376.6L2402.1,1401.8C2402.1,1402.8 2401.3,1403.6 2400.3,1403.6L2349.3,1403.6C2348.3,1403.6 2347.5,1402.8 2347.5,1401.8L2347.5,1279.4C2347.5,1278.4 2348.3,1277.6 2349.3,1277.6L2400.3,1277.6C2401.3,1277.6 2402.1,1278.4 2402.1,1279.4L2402.1,1309.4L2442.1,1309.4L2442.1,773.3L1521.2,241.6L1521.2,1149L1454,1149L1454,202.8L1260.5,91.1L658.6,438.6L609.1,467.2L609.1,1149.1L637.3,1149.1C638.3,1149.1 639.1,1149.9 639.1,1150.9L639.1,1201.9C639.1,1202.9 638.3,1203.7 637.3,1203.7L514.9,1203.7C513.9,1203.7 513.1,1202.9 513.1,1201.9L513.1,1150.9C513.1,1149.9 513.9,1149.1 514.9,1149.1L541.9,1149.1L541.9,506L78.9,773.3L78.9,2137.7L178.3,2195.1L178.3,1798.3L152,1798.3C151,1798.3 150.2,1797.5 150.2,1796.5L150.2,1745.5C150.2,1744.5 151,1743.7 152,1743.7L274.4,1743.7C275.4,1743.7 276.2,1744.5 276.2,1745.5L276.2,1796.5C276.2,1797.5 275.4,1798.3 274.4,1798.3L245.6,1798.3L245.6,2233.9L1260.5,2819.9L2122.1,2322.5L2122.1,1748.7L848.8,1748.7ZM1424.6,1150.8C1424.6,1149.8 1425.4,1149 1426.4,1149L1548.8,1149C1549.8,1149 1550.6,1149.8 1550.6,1150.8L1550.6,1201.8C1550.6,1202.8 1549.8,1203.6 1548.8,1203.6L1426.4,1203.6C1425.4,1203.6 1424.6,1202.8 1424.6,1201.8L1424.6,1150.8Z" style="fill:none;fill-rule:nonzero;"/>
                        <path d="M2442.1,1748.7L2442.1,1679.3L2219.2,1679.3C2219.3,1679.1 2219.3,1678.9 2219.3,1678.7L2219.3,1618C2219.3,1617 2218.5,1616.2 2217.5,1616.2L2095.1,1616.2C2094.1,1616.2 2093.3,1617 2093.3,1618L2093.3,1678.7C2093.3,1678.9 2093.3,1679.1 2093.4,1679.3L848.8,1679.3L848.8,1651.7C848.8,1650.7 848,1649.9 847,1649.9L796,1649.9C795,1649.9 794.2,1650.7 794.2,1651.7L794.2,1774.1C794.2,1775.1 795,1775.9 796,1775.9L847,1775.9C848,1775.9 848.8,1775.1 848.8,1774.1L848.8,1748.7L2122.1,1748.7L2122.1,2322.5L2190,2283.3L2190,1748.7L2442.1,1748.7Z" style="fill:rgb(0,132,113);fill-rule:nonzero;"/>
                        <path d="M1521.2,1149.1L1521.2,241.6L1454,202.8L1454,1149.1L1521.2,1149.1Z" style="fill:rgb(0,132,113);fill-rule:nonzero;"/>
                        <path d="M1260.5,0L0,727.8L0,2183.3L1240.8,2899.7L1260.5,2911.1L2521,2183.3L2521,727.8L1260.5,0ZM2190,2283.2L2122.1,2322.4L1260.5,2819.8L245.6,2233.8L178.4,2195L79,2137.6L79,773.3L542,506L609.2,467.2L658.7,438.6L1260.6,91.1L1454,202.8L1521.2,241.6L2442.1,773.3L2442.1,2137.7L2190,2283.2Z" style="fill:rgb(0,130,114);fill-rule:nonzero;"/>
                        <path d="M514.9,1149.1C513.9,1149.1 513.1,1149.9 513.1,1150.9L513.1,1201.9C513.1,1202.9 513.9,1203.7 514.9,1203.7L637.3,1203.7C638.3,1203.7 639.1,1202.9 639.1,1201.9L639.1,1150.9C639.1,1149.9 638.3,1149.1 637.3,1149.1L609.1,1149.1L609.1,467.2L541.9,506L541.9,1149L514.9,1149L514.9,1149.1Z" style="fill:rgb(0,132,113);fill-rule:nonzero;"/>
                        <path d="M2402.1,1279.3C2402.1,1278.3 2401.3,1277.5 2400.3,1277.5L2349.3,1277.5C2348.3,1277.5 2347.5,1278.3 2347.5,1279.3L2347.5,1401.7C2347.5,1402.7 2348.3,1403.5 2349.3,1403.5L2400.3,1403.5C2401.3,1403.5 2402.1,1402.7 2402.1,1401.7L2402.1,1376.5L2442.1,1376.5L2442.1,1309.3L2402.1,1309.3L2402.1,1279.3Z" style="fill:rgb(0,132,113);fill-rule:nonzero;"/>
                        <path d="M274.4,1798.3C275.4,1798.3 276.2,1797.5 276.2,1796.5L276.2,1745.5C276.2,1744.5 275.4,1743.7 274.4,1743.7L152,1743.7C151,1743.7 150.2,1744.5 150.2,1745.5L150.2,1796.5C150.2,1797.5 151,1798.3 152,1798.3L178.4,1798.3L178.4,2195.1L245.6,2233.9L245.6,1798.3L274.4,1798.3Z" style="fill:rgb(0,132,113);fill-rule:nonzero;"/>
                        <path d="M1426.4,1203.6L1548.8,1203.6C1549.8,1203.6 1550.6,1202.8 1550.6,1201.8L1550.6,1150.8C1550.6,1149.8 1549.8,1149 1548.8,1149L1426.4,1149C1425.4,1149 1424.6,1149.8 1424.6,1150.8L1424.6,1201.8C1424.6,1202.8 1425.4,1203.6 1426.4,1203.6Z" style="fill:rgb(0,132,113);fill-rule:nonzero;"/>
                    </g>
                </g>
            </g>
        </g>
    </g>
</svg>
